<svg xmlns="http://www.w3.org/2000/svg" viewBox="126.52 315.38 415.93 376.82"><path style="fill:#8e0416;" d="m336.48477 690.86002c-12.11913-2.22128-22.76052-8.28608-32.26258-18.38723-10.08357-10.71932-20.04627-31.99303-19.05515-40.68914l.33297-2.92144 18-.14287c30.9413-.24559 60.0451-4.35141 73-10.2985 1.1-.50496 5.82052-2.59873 10.49004-4.6528 13.675-6.01551 32.81672-17.81842 43.97592-27.11585 4.46808-3.72264 17.07951-16.43717 20.62139-20.78998 7.66192-9.41613 18.396-27.81381 18.40777-31.55.003-.8525.40965-1.9775.90437-2.5 1.85329-1.95737 5.2016-18.63062 6.04117-30.08265.77944-10.63184 2.12452-16.7571 5.02157-22.86735 3.66788-7.73605 10.33517-26.34235 11.50205-32.09865.34548-1.70425.12685-5.97925-.48584-9.5-.61268-3.52074-1.46993-11.17934-1.90498-17.01911-.73252-9.83274-1.05232-11.01569-4.32552-16-4.41367-6.72097-5.46191-11.02541-3.22879-13.25853.89304-.89304 2.00152-1.62371 2.46329-1.62371 1.73917 0 12.6238 4.43412 15.17193 6.18065 1.4599 1.00064 3.05601 1.81935 3.54689 1.81935 1.76082 0 14.46549 8.94275 16.60973 11.69149 1.20395 1.54338 4.97833 5.85437 8.3875 9.57998 3.40917 3.7256 7.68417 9.79046 9.5 13.47747 3.80316 7.72223 3.70789 5.64763 2.42247 52.75106-.78916 28.9183-1.94096 38.28661-5.58552 45.43052-2.90447 5.69324-13.10082 15.21581-19.88337 18.56948-3.55592 1.75824-6.08483 3.66021-6.10968 4.59502-.0233.87727 2.8934 4.92727 6.48158 9 8.02628 9.11016 10.47603 13.64644 10.47603 19.39875 0 13.5035-12.78019 28.85555-33.19975 39.88078-6.68981 3.61206-31.01052 14.62545-32.29718 14.62545-.38544 0-2.11882.65283-3.85194 1.45073-1.73312.79789-5.40113 2.30892-8.15113 3.35783-16.6796 6.36196-26.78045 10.96553-32.5 14.8122-6.35058 4.27107-9.24582 6.73193-21.5 18.27426-10.65579 10.03679-17.88669 14.51125-26.87708 16.63145-7.39193 1.74324-22.5446 1.72973-32.13816-.0287zm-84.48476-80.09695c-6.325-.76155-14.38828-2.2883-17.91841-3.39275-3.53012-1.10446-6.8297-2.00811-7.33239-2.00811-4.20693 0-36.86075-17.9788-44.44906-24.47312-.65992-.56479-4.84592-3.50188-9.30223-6.52688-26.80593-18.19621-39.41638-29.13666-44.24085-38.38207-1.78785-3.42617-2.15792-5.88772-2.20295-14.65318-.0516-10.05234.12191-10.94617 3.78604-19.5 2.11208-4.93061 4.29213-9.81428 4.84455-10.85259s1.61519-5.76331 2.3617-10.5c4.02-25.50737 4.49145-27.06475 14.0767-46.50132 9.15845-18.5711 19.65601-27.8792 32.97754-29.24093 12.26113-1.25332 16.66348 2.58943 17.90618 15.63009.65681 6.89231 1.95465 12.78073 5.87881 26.6726.80364 2.84493 1.893 5.99493 2.42082 7 1.3112 2.49679 4.33118 21.34864 3.81766 23.8313-1.37997 6.67169-3.15553 11.12408-7.59264 19.03938-9.60524 17.13467-9.20141 22.66062 2.55495 34.96141 6.7029 7.01331 14.358 16.35783 18.13087 22.13224.66951 1.02469 4.44695 6.81307 8.39431 12.86307 12.8154 19.64179 22.60255 30.16298 34.8884 37.50503 11.32613 6.76852 10.67398 6.22237 8.46258 7.08703-2.95041 1.15361-14.56961.86117-27.46258-.6912zm73-1.43159c-14.04271-1.65895-33.5096-9.99865-43.90691-18.8099-5.54154-4.69622-11.75815-13.41452-16.51384-23.15937-10.72915-21.98504-17.41849-29.49328-29.92977-33.59374-7.28946-2.38905-10.41472-4.89068-11.77281-9.42357-1.70918-5.70473.91405-11.8726 8.05243-18.93329 6.77375-6.70003 9.07312-8.43868 15.56261-11.76752 6.15189-3.15566 19.13973-4.20452 28.7244-2.3197 5.71386 1.12363 30.45426 8.83122 35.28389 10.9923 3.47695 1.5558 19.49128 6.77408 34 11.07893 11.69152 3.46896 15.89625 4.24087 25.5 4.68137 10.70157.49086 12.05543.33577 19.5-2.23381 13.12263-4.52943 25.816-12.4616 34.29931-21.43386 4.02311-4.255 14.19321-19.7791 14.20685-21.68599.003-.47361.71122-2.21112 1.57295-3.86112.86174-1.65 3.12245-9.06598 5.02381-16.47997 1.90136-7.41398 3.86275-13.8857 4.35864-14.38159 2.82074-2.82074 6.04173 15.6865 6.03089 34.65241-.012 20.95719-3.52228 38.38658-11.51708 57.1849-1.54968 3.6438-14.06684 24.36271-15.42027 25.52425-.32043.275-2.57717 2.975-5.01498 6-6.31128 7.83146-17.68874 19.2867-23.54012 23.70105-2.75 2.07463-5.225 4.00437-5.5 4.28832-3.79709 3.92056-20.69713 12.62997-30.93477 15.94217-14.02577 4.53779-24.46181 5.64478-38.06523 4.03773zm52.37427-111.60112c-1.16915-.26108-3.15462-1.56989-4.41216-2.90848-2.09909-2.23438-2.18807-2.76211-1.08598-6.44057 1.21591-4.05833 3.63328-6.71299 24.95211-27.40147 16.02748-15.55358 20.59325-25.09421 20.64199-43.13352.0269-9.9591-.18787-11.29339-2.23893-13.90862-8.42817-10.7465-28.87063-16.72775-49.79353-14.56907-11.17515 1.15297-19.35835 4.99074-27.24899 12.77927-9.34411 9.22318-12.80001 18.54078-10.30599 27.78633 1.43895 5.3343 10.04269 13.59475 18.35213 17.61991 5.39764 2.61465 7.07552 2.95972 12.81465 2.63543 5.36935-.3034 7.68456-1.02312 12.38553-3.85026 11.7751-7.08147 17.5649-15.08711 17.5649-24.28722 0-15.33767-19.83436-24.88117-35.11753-16.89714-6.25041 3.26525-11.88247 10.00809-11.88247 14.22598 0 1.57479-.52103 3.18526-1.15783 3.57883-1.83314 1.13294-.30026-8.7793 2.07885-13.44273 2.57751-5.05235 9.37877-10.63915 14.67469-12.05435 5.67335-1.51605 19.01395-1.59906 24.29542-.15118 4.81893 1.32108 10.70886 4.73946 13.21727 7.671 3.77577 4.41269 4.84788 12.69634 2.73118 21.1025-1.97027 7.82466-9.60034 21.05233-15.78453 27.36442-1.587 1.61983-9.55819 10.6787-16.80522 19.09834-2.21814 2.57705-5.52272 6.75997-7.34351 9.29537-2.42604 3.3782-5.05996 5.46335-9.85842 7.80444-6.04873 2.95107-7.27212 3.18554-16.0479 3.07562-6.74839-.0845-11.67232-.77911-17-2.39804-22.82999-6.9374-33.4887-17.54274-31.36371-31.20667.96657-6.21521 16.31303-37.08198 22.50068-45.25627 5.54183-7.32113 21.56139-23.91962 25.86303-26.79772 1.375-.91997 4.22445-2.81585 6.33212-4.21307 6.07799-4.02923 17.89162-6.85526 25.65346-6.13675 25.5968 2.36947 35.67352 4.73192 48.15157 11.28895 14.1319 7.4261 22.01193 17.58009 25.35414 32.67064 1.90704 8.61056 1.89182 11.61237-.10816 21.33099-1.86604 9.06776-3.52084 12.65126-11.24764 24.35696-12.2691 18.58703-27.6669 30.48015-40.67163 31.41439-3.28012.23564-6.92044.21483-8.08959-.0462zm-150.32307-39.94847c-1.67816-2.64618-3.0512-5.40425-3.0512-6.12903s-.42899-2.09918-.95332-3.05422c-.52432-.95504-1.68325-5.33643-2.57538-9.73643-.89214-4.4-2.2814-11.15-3.08724-15-5.02116-23.98918-6.6033-35.47336-6.68169-48.5-.07-11.63949.24175-14.46471 2.26243-20.5 4.36093-13.02501 8.43531-17.17581 20.68981-21.07789 5.27222-1.67878 10.92808-4.38625 14.7062-7.03987 9.05477-6.35978 14.5363-9.34592 19.08474-10.39669 6.68956-1.54542 19.65475-1.13168 27.64449.88216 4.07548 1.02724 12.58496 2.18267 18.90996 2.56761 12.12711.73807 16.25443 1.93175 16.81919 4.86433.91703 4.76177-18.38366 13.22214-38.216 16.7518-8.44379 1.50279-19.36084 4.88422-23.57562 7.30228-12.29987 7.05655-22.03441 19.37395-30.14732 38.14627-5.40563 12.50801-8.06959 31.47562-7.75668 55.22823.13932 10.57552-.0335 19.51498-.38393 19.86546-.35048.35048-2.01028-1.52782-3.68844-4.17401zm238.31048 2.33032c-3.55956-4.03081-6.91675-18.29975-9.35238-39.75-2.21587-19.51491-8.13303-30.36172-23.08369-42.31498-13.06445-10.44519-28.19786-17.24734-46.21107-20.77089-25.1095-4.91166-48.00406.73007-67.76967 16.69995-7.82377 6.32132-21.08473 21.21048-23.05516 25.88592-.23179.55-1.53476 2.79515-2.8955 4.98922-1.36073 2.19408-3.99487 7.59408-5.85364 12.00001-3.29316 7.80589-3.90692 9.64284-7.9591 23.82123-2.31345 8.09462-4.80063 11.04301-10.71174 12.69801-5.52203 1.54608-8.95406.70901-11.20708-2.73337-1.46508-2.23849-1.75248-4.89473-1.70238-15.73412.0959-20.7552 5.19011-37.23195 17.04037-55.11572 10.29809-15.54129 16.52853-20.27872 47.89936-36.42114 11-5.66024 22.50021-11.98421 25.55601-14.05326 8.73244-5.91263 12.07704-6.95086 22.39187-6.95086 7.27986 0 11.38254.6324 19.62788 3.0255 5.73333 1.66403 17.17424 4.80014 25.42424 6.96913 19.08671 5.01806 24.58121 7.16549 32 12.50663 16.30586 11.73935 23.5287 28.67279 26.6584 62.49874 2.37181 25.63456 1.15119 51.85149-2.52509 54.23469-1.70275 1.10383-2.11107.96191-4.27163-1.48469zm-105.54929-27.78608c-6.64898-3.51179-8.3139-8.07477-5.20443-14.26358 3.20656-6.38204 8.08051-8.4109 10.81769-4.50302 1.40584 2.0071 1.36746 2.48815-.44329 5.55716-2.5025 4.24141-2.518 6.88848-.0481 8.21034 2.81433 1.50618 8.71631 1.26724 12.1154-.4905 3.70252-1.91465 3.79361-.65297.20034 2.77497-5.28246 5.03942-11.27094 5.97168-17.43761 2.71463z"/></svg>